<svg width="251" height="64" viewBox="0 0 251 64" fill="none" xmlns="http://www.w3.org/2000/svg">
<path fill-rule="evenodd" clip-rule="evenodd" d="M131.828 46.4596C130.678 47.4571 130.679 47.4527 131.792 47.4527C132.605 47.4527 132.761 47.422 133.098 47.1924C133.356 47.0172 133.625 46.9314 133.916 46.9314C134.227 46.9314 134.438 47.0053 134.66 47.1924C134.939 47.4277 136.831 47.6173 136.831 47.4095C136.831 47.3857 136.39 46.9871 135.85 46.5234L134.87 45.6799L133.79 45.6868L132.711 45.6937L131.828 46.4596ZM202.071 45.7688C202.818 46.4383 204.891 47.4527 205.513 47.4527C206.366 47.4527 206.361 47.4295 205.309 46.4746L204.433 45.6799H203.203C202.517 45.6799 202.015 45.7194 202.071 45.7688ZM207.94 46.489C207.443 46.9333 207.032 47.3319 207.027 47.3745C207.008 47.5672 208.944 47.4514 209.209 47.2443C209.576 46.9571 210.461 46.9571 210.722 47.2443C210.885 47.4245 211.039 47.4521 211.859 47.4477L212.807 47.4427L211.875 46.5616L210.942 45.6799L209.893 45.6806L208.844 45.6812L207.94 46.489ZM117.798 48.4952C113.17 48.5671 112.986 48.5897 111.959 49.2248C109.22 50.9175 108.897 57.4153 111.446 59.5353C112.824 60.6811 113.528 60.7987 119.023 60.8006L123.586 60.8025V59.1498V57.4979L118.772 57.424C115.12 57.3677 113.877 57.3158 113.623 57.21C112.313 56.6619 111.954 53.8729 113.016 52.4806C113.56 51.7672 113.756 51.7341 117.38 51.7309C119.159 51.7291 121.284 51.6972 122.102 51.6602L123.591 51.592L123.563 50.0176L123.534 48.4439L122.804 48.4364C122.402 48.4326 120.149 48.4589 117.798 48.4952ZM143.679 48.4608C143.641 48.4996 143.61 51.2917 143.61 54.6663V60.8025H145.018H146.426V56.9954C146.426 54.9016 146.456 53.1889 146.494 53.1889C146.551 53.1889 151.05 56.7538 152.704 58.1092C152.973 58.3301 153.841 59.0259 154.633 59.6561L156.073 60.8018L157.142 60.8025H158.21V54.5969V48.3913H156.802H155.395V52.1458C155.395 54.2108 155.355 55.9003 155.307 55.9003C155.228 55.9003 153.788 54.7796 148.9 50.9137C148.053 50.2435 146.982 49.4019 146.521 49.0433L145.683 48.3913H144.715C144.184 48.3913 143.717 48.4226 143.679 48.4608ZM167.858 48.4921L163.164 48.5477L162.571 48.8394C159.245 50.4726 158.712 57.3815 161.74 59.5885C163.365 60.7718 163.552 60.8025 169.284 60.8025H174.167V56.8903V52.9781L169.552 53.0056L164.937 53.0325L164.908 54.6213L164.88 56.2107L168.142 56.2382L171.404 56.2658V56.8389V57.4128L167.716 57.3834C163.788 57.3527 163.738 57.3464 163.248 56.8214C162.231 55.7326 162.28 53.0907 163.332 52.2046C163.846 51.7722 164.235 51.7303 167.711 51.7297C169.523 51.7291 171.717 51.6978 172.586 51.6602L174.167 51.592V49.992V48.3913L173.359 48.4138C172.914 48.4257 170.439 48.4608 167.858 48.4921ZM185.64 54.625V60.8256L190.619 60.7568C196.702 60.6723 196.946 60.6297 198.223 59.4208C201.132 56.6706 200.626 50.507 197.359 48.8988C196.556 48.5033 196.804 48.5183 190.046 48.4608L185.64 48.4239V54.625ZM219.743 54.5969V60.8025H221.15H222.556L222.583 56.981L222.611 53.1589L227.388 56.981L232.164 60.8025H233.202H234.239V54.5938V48.3857L232.858 48.4145L231.476 48.4439L231.448 52.1721C231.433 54.2227 231.395 55.9003 231.364 55.9003C231.333 55.9003 230.336 55.135 229.149 54.1989C224.303 50.3787 223.41 49.6716 222.634 49.0458L221.823 48.3913H220.783H219.743V54.5969ZM243.938 48.4921L239.298 48.5477L238.697 48.8293C234.854 50.6309 234.874 58.2694 238.727 60.1385C240.106 60.8075 240.052 60.8025 245.418 60.8025H250.3V56.8915V52.9806H245.659H241.019V54.5969V56.2132H244.251H247.484V56.8558V57.4979L243.829 57.4246C241.818 57.384 240.07 57.312 239.944 57.2638C238.466 56.7007 238.116 53.3936 239.412 52.2553C239.967 51.7685 240.291 51.7303 243.844 51.7297C245.656 51.7291 247.85 51.6978 248.72 51.6602L250.3 51.592V49.992V48.3913L249.44 48.4138C248.967 48.4264 246.491 48.4614 243.938 48.4921ZM128.838 48.6016C124.125 49.5615 124.219 59.3032 128.953 60.5365C130.005 60.81 137.507 60.7718 138.426 60.4883C143.012 59.0716 143.504 50.98 139.134 48.8343L138.552 48.5477L133.911 48.5309C131.358 48.5215 129.075 48.5534 128.838 48.6016ZM204.933 48.5909C200.128 49.5928 200.255 59.2681 205.09 60.5565C205.9 60.7724 213.528 60.7568 214.376 60.5371C219.042 59.3294 219.61 50.9068 215.166 48.8231L214.581 48.5477L209.939 48.5315C207.387 48.5221 205.134 48.549 204.933 48.5909ZM195.923 51.8943C197.29 52.383 197.788 55.0011 196.808 56.5467C196.307 57.3364 196.292 57.3395 192.07 57.4234L188.34 57.4979L188.372 56.8815L188.403 56.2658L190.515 56.2376L192.627 56.2088V54.5969V52.985L190.515 52.9562L188.403 52.928L188.371 52.4199C188.353 52.1402 188.361 51.8542 188.388 51.7835C188.464 51.5839 195.337 51.6846 195.923 51.8943ZM138.312 52.0213C139.334 52.6564 139.637 54.7289 138.917 56.1638C138.284 57.4253 138.567 57.3608 133.658 57.3608H129.475L129.094 57.1018C127.54 56.0461 127.87 52.3429 129.564 51.8417C130.363 51.6045 137.89 51.7591 138.312 52.0213ZM214.04 51.8799C215.726 52.4812 215.883 56.1531 214.266 57.1524C213.818 57.4297 205.882 57.4791 205.358 57.2081C203.696 56.349 203.791 52.7021 205.495 51.9287C206.057 51.6734 213.344 51.6321 214.04 51.8799ZM133.099 61.4864C132.071 62.2066 132.675 64.2003 133.855 63.9838C135.231 63.7316 135.101 61.3237 133.711 61.3237C133.502 61.3237 133.227 61.3969 133.099 61.4864Z" fill="#00A3E4"/>
<path fill-rule="evenodd" clip-rule="evenodd" d="M26.7615 46.8155C26.5256 47.0758 26.632 47.2647 26.9661 47.1809C27.2346 47.1133 27.3597 47.5626 27.1144 47.7147C27.0556 47.7503 27.035 47.8235 27.0681 47.8774C27.3353 48.3097 28.0893 47.398 27.8372 46.9469C27.6338 46.5827 27.0381 46.5095 26.7615 46.8155ZM20.1417 47.5833L19.9264 47.9218L20.2524 47.9562C20.5121 47.9831 20.6548 47.9136 20.9514 47.617L21.3244 47.2441H20.8406C20.4089 47.2441 20.3344 47.2804 20.1417 47.5833ZM73.5852 47.6089L73.3067 47.9743H73.6715C73.9081 47.9743 74.0752 47.9099 74.1465 47.7916C74.2497 47.6183 74.2635 47.6189 74.4031 47.7991C74.5019 47.9268 74.6546 47.9781 74.8705 47.9556L75.1909 47.9218L74.9243 47.5833C74.5345 47.0877 73.9744 47.0983 73.5852 47.6089ZM86.1703 47.6102L85.9344 47.9743H86.2798C86.5382 47.9743 86.7153 47.8817 86.9794 47.6089L87.3329 47.2441L86.8693 47.2453C86.455 47.2466 86.3805 47.2854 86.1703 47.6102ZM55.7663 47.6214C55.725 47.6627 55.6918 47.8292 55.6918 47.9912C55.6918 48.2722 55.6681 48.2872 55.2225 48.2872H54.7532V50.0487C54.7532 51.6031 54.7307 51.8377 54.5611 52.0467L54.3696 52.2839L54.1444 52.058C53.931 51.8452 53.9191 51.7376 53.9191 50.06V48.2872H53.3972H52.876L52.8785 50.0863C52.8816 52.5392 53.1475 53.0842 54.3427 53.0842C55.4497 53.0842 55.7963 52.4441 55.7963 50.3979V48.9242L56.0829 48.7866C56.5034 48.5851 56.521 47.6271 56.1048 47.5782C55.9597 47.5613 55.807 47.5807 55.7663 47.6214ZM59.4351 47.9481C59.4295 47.9912 59.4326 48.1552 59.4432 48.3129C59.4645 48.6358 59.3012 48.6808 58.9833 48.4399C58.7073 48.2315 57.9295 48.2472 57.5547 48.4687C56.4039 49.1483 56.3639 52.19 57.4959 52.8802C58.8838 53.7262 60.1447 52.0724 59.7667 49.9023C59.6547 49.2596 59.6591 49.2309 59.9138 48.9762C60.3399 48.55 60.2373 47.8698 59.7473 47.8698C59.5815 47.8698 59.4413 47.9049 59.4351 47.9481ZM1.73835 48.3567C1.44737 48.647 1.6789 49.2258 2.08564 49.2258H2.50301V51.1031V52.9804H3.02176H3.54114L3.56929 51.1288L3.59808 49.2778L3.98917 49.2452C4.37776 49.2133 4.38027 49.2096 4.38027 48.7503V48.2872H3.09372C2.38663 48.2872 1.77652 48.3185 1.73835 48.3567ZM5.59422 48.4649C5.56419 48.5676 5.34705 49.5437 5.11177 50.6338C4.87649 51.7232 4.65935 52.6975 4.62932 52.7976C4.58239 52.9547 4.64872 52.9804 5.10176 52.9804H5.62927L5.69622 52.563C5.76193 52.1525 5.76943 52.1456 6.20558 52.1456C6.64111 52.1456 6.64924 52.1525 6.71494 52.563L6.78127 52.9804H7.28938H7.79687L7.64293 52.1719C7.55846 51.7276 7.36135 50.6832 7.20553 49.8516L6.92207 48.3392L6.28505 48.3085C5.74691 48.2822 5.64053 48.3066 5.59422 48.4649ZM8.52587 48.3592C8.35879 48.4024 8.34315 48.6032 8.34315 50.6932V52.9804H8.86503H9.38628V52.1456V51.3115H9.70228C11.2241 51.3115 11.8417 49.0988 10.4914 48.4856C10.0859 48.3016 9.01083 48.2322 8.52587 48.3592ZM13.9036 48.49C11.9587 49.3729 12.562 53.0905 14.6488 53.083C15.3697 53.0798 15.707 52.2457 15.018 52.1688C14.1357 52.0699 13.8717 51.7282 13.8717 50.6857C13.8717 49.647 14.3779 49.0087 15.065 49.1814C15.2971 49.2396 15.5155 48.6395 15.3622 48.3654C15.2777 48.2134 14.3347 48.2941 13.9036 48.49ZM15.9567 50.6282V52.9804H16.4779H16.9998V52.0417V51.1031H17.4165H17.8339V52.0417V52.9804H18.3552H18.877V50.6338V48.2872H18.3552H17.8339V49.2258V50.1645H17.4209H17.0079L16.9773 49.2515L16.9472 48.3392L16.4523 48.3072L15.9567 48.2753V50.6282ZM19.8157 50.6338V52.9804H20.3369H20.8582V50.6338V48.2872H20.3369H19.8157V50.6338ZM23.7754 48.5219C22.288 49.2734 22.2185 52.1181 23.6703 52.8496C24.5626 53.2995 25.311 53.1387 25.1952 52.5223C25.1289 52.1688 25.1008 52.1456 24.7309 52.1456C23.3868 52.1456 23.4425 49.2252 24.7873 49.1789C25.1627 49.1658 25.4931 48.5763 25.2566 48.3398C25.1126 48.1959 24.1984 48.3079 23.7754 48.5219ZM25.7784 50.1901C25.8273 52.6337 26.0519 53.0842 27.2202 53.0842C28.3922 53.0842 28.6187 52.6306 28.6625 50.1901L28.6969 48.2872H28.1669H27.6376V50.0487C27.6376 51.6031 27.615 51.8377 27.4454 52.0467L27.254 52.2839L27.0281 52.058C26.8153 51.8452 26.8028 51.7376 26.8028 50.06V48.2872H26.2715H25.7403L25.7784 50.1901ZM30.1399 48.3129C30.1399 48.3273 29.9291 49.3648 29.6706 50.6175C29.4128 51.8709 29.2019 52.9153 29.2019 52.9384C29.2019 52.9616 29.4147 52.9804 29.6744 52.9804C30.1587 52.9804 30.1731 52.9672 30.2901 52.4328C30.4052 51.9084 31.1593 52.0111 31.2475 52.563L31.3145 52.9804H31.8338C32.3194 52.9804 32.3495 52.9647 32.2975 52.7457C32.2669 52.6162 32.0654 51.5605 31.8501 50.3991L31.4584 48.2872H30.7995C30.4372 48.2872 30.1406 48.2985 30.1399 48.3129ZM33.7906 48.7471C33.7906 49.2102 33.7931 49.2133 34.1817 49.2452L34.5728 49.2778L34.6015 51.1288L34.6297 52.9804H35.1491H35.6678V51.1031V49.2258H36.0908H36.5138L36.4819 48.7822L36.45 48.3392L35.1203 48.3097L33.7906 48.281V48.7471ZM37.2059 48.3592C37.0395 48.4024 37.0238 48.6032 37.0238 50.6932V52.9804H37.5451H38.0663V52.0937C38.0663 51.2858 38.0845 51.207 38.2691 51.207C38.5306 51.207 38.5713 51.2827 38.7008 52.0092C38.8785 53.0104 38.8554 52.9804 39.4292 52.9804C39.712 52.9804 39.9436 52.9597 39.9436 52.9347C39.9436 52.5974 39.5769 51.2958 39.4217 51.0831L39.2171 50.8027L39.5281 50.4917C40.6857 49.3341 39.0882 47.8673 37.2059 48.3592ZM40.5875 50.1901C40.6313 52.6306 40.8578 53.0842 42.0298 53.0842C43.2175 53.0842 43.4841 52.5354 43.4872 50.0863L43.4897 48.2872H42.9685H42.4466V50.0487C42.4466 51.6031 42.424 51.8377 42.2551 52.0467L42.063 52.2839L41.8377 52.058C41.6243 51.8452 41.6124 51.7376 41.6124 50.06V48.2872H41.0824H40.5531L40.5875 50.1901ZM44.3933 48.3567C44.3551 48.3948 44.3238 49.4505 44.3238 50.7032V52.9804H44.7994H45.2743L45.2424 51.6294C45.2249 50.886 45.2412 50.3115 45.2787 50.3516C45.3169 50.3922 45.5697 50.9999 45.8413 51.7026L46.3356 52.9804H46.8419H47.3487V50.6338V48.2872H46.8669H46.3844L46.4595 49.7208C46.5446 51.3684 46.4977 51.3909 45.9589 49.9555C45.2731 48.1283 45.3745 48.2872 44.892 48.2872C44.6561 48.2872 44.4321 48.3185 44.3933 48.3567ZM49.1121 48.53C47.0008 49.6445 47.8906 53.2945 50.2146 53.0548C51.0194 52.9716 50.9987 53.0098 50.9987 51.6181V50.3728H50.373H49.7472V50.7902C49.7472 51.0912 49.7904 51.207 49.9036 51.207C50.0889 51.207 50.1308 52.0899 49.9512 52.2007C49.5595 52.4428 49.0908 51.6763 49.0908 50.7927C49.0908 49.6582 49.4275 49.2258 50.3091 49.2258C50.7684 49.2258 50.7828 49.2158 50.851 48.8491C50.9693 48.2203 50.0257 48.0469 49.1121 48.53ZM60.4895 50.6338V52.9804H60.9062H61.3236L61.3305 51.5461C61.3355 50.6219 61.3705 50.1864 61.43 50.3209C61.4807 50.4354 61.7316 51.0687 61.9875 51.7288L62.4525 52.9278L62.9831 52.9597L63.5137 52.991V50.6388V48.2872H63.0475H62.5807L62.552 49.7058L62.5232 51.1244L61.9688 49.7058L61.4137 48.2872H60.9519H60.4895V50.6338ZM65.3941 48.4499C64.5869 48.8053 64.142 49.5988 64.1414 50.6857C64.1401 52.4422 64.9642 53.2488 66.5405 53.0323L67.0599 52.9603V51.6669V50.3728H66.4341H65.8084V50.7902C65.8084 51.0912 65.8515 51.207 65.9648 51.207C66.0831 51.207 66.1212 51.3346 66.1212 51.7288C66.1212 52.262 66.0524 52.3321 65.7095 52.1487C64.6488 51.5812 65.2001 49.2258 66.3941 49.2258C66.8696 49.2258 67.0311 49.02 66.9372 48.53C66.8884 48.2735 65.9097 48.2228 65.3941 48.4499ZM69.041 50.6338V52.9804H69.5629H70.0841V52.0417V51.1031H70.5015H70.9182V52.0417V52.9804H71.4401H71.9614V50.6338V48.2872H71.4401H70.9182V49.2258V50.1645H70.5015H70.0841V49.2258V48.2872H69.5629H69.041V50.6338ZM73.567 48.485C72.477 49.1501 72.3281 51.772 73.3261 52.7275C74.1021 53.4716 75.408 52.9766 75.719 51.8215C76.3185 49.5944 75.0282 47.5939 73.567 48.485ZM76.4461 50.6338V52.9804H76.9674H77.4886V50.6338V48.2872H76.9674H76.4461V50.6338ZM80.6205 48.4499C79.8133 48.8053 79.3684 49.5988 79.3678 50.6857C79.3665 52.4422 80.1912 53.2488 81.7669 53.0323L82.2863 52.9603V51.6669V50.3728H81.6605H81.0348V50.7902C81.0348 51.0912 81.0779 51.207 81.1912 51.207C81.3095 51.207 81.3476 51.3346 81.3476 51.7288C81.3476 52.5317 80.7669 52.3352 80.5204 51.4485C80.1737 50.1983 80.6543 49.2258 81.6205 49.2258C82.0967 49.2258 82.2575 49.02 82.1642 48.53C82.1154 48.2735 81.1368 48.2228 80.6205 48.4499ZM83.1204 50.6338V52.9804H83.6423H84.1635V50.6338V48.2872H83.6423H83.1204V50.6338ZM85.6234 48.3536C85.6234 48.453 84.788 52.5868 84.7254 52.7976C84.6785 52.9541 84.7442 52.9804 85.186 52.9804H85.701L85.7679 52.563C85.8856 51.8258 86.771 51.9716 86.771 52.7282C86.771 52.961 86.8104 52.9804 87.2923 52.9804C87.5789 52.9804 87.8135 52.9635 87.8135 52.9428C87.8135 52.9222 87.6258 51.9066 87.3968 50.6857C87.1671 49.4649 86.9794 48.4255 86.9794 48.3767C86.9794 48.3273 86.674 48.2872 86.3017 48.2872C85.9288 48.2872 85.6234 48.3166 85.6234 48.3536ZM88.8598 48.5607C87.0301 50.1006 88.4374 54.071 90.391 52.8796C91.5274 52.1869 91.548 49.1257 90.421 48.4599C89.9605 48.1877 89.249 48.234 88.8598 48.5607ZM93.1568 48.3673C93.0548 48.4374 93.0304 48.9881 93.0523 50.7452L93.0805 53.0323L93.6762 53.0636C95.6711 53.1681 96.793 51.1913 95.8338 49.2628C95.4539 48.4993 93.7801 47.9393 93.1568 48.3673ZM96.6967 50.1901C96.7461 52.6337 96.9708 53.0842 98.1384 53.0842C99.3104 53.0842 99.537 52.6306 99.5808 50.1901L99.6152 48.2872H99.0858H98.5558V50.0487C98.5558 52.0211 98.4388 52.441 97.982 52.1068C97.7899 51.966 97.7711 51.8133 97.7411 50.1207L97.7079 48.2872H97.1835H96.6585L96.6967 50.1901ZM101.424 48.4606C99.4519 49.5024 100.016 53.0911 102.15 53.083C102.976 53.0798 103.101 52.1863 102.284 52.125C100.981 52.028 101.061 49.1839 102.367 49.1839C102.732 49.1839 102.98 48.7159 102.784 48.398C102.681 48.2309 101.78 48.2722 101.424 48.4606ZM10.0202 49.2878C10.3581 49.6952 10.1046 50.4773 9.63407 50.4773C9.39879 50.4773 9.38628 50.4436 9.38628 49.799C9.38628 49.0757 9.66035 48.8541 10.0202 49.2878ZM38.6714 49.2465C38.9048 49.4799 38.8247 50.1407 38.5406 50.3272C38.1708 50.5693 38.0663 50.4404 38.0663 49.7408C38.0663 49.0938 38.3154 48.8904 38.6714 49.2465ZM58.5653 49.483C58.8588 50.1851 58.718 52.043 58.3607 52.18C57.9796 52.3264 57.7775 51.8096 57.7775 50.6876C57.7775 49.2872 58.208 48.6289 58.5653 49.483ZM74.5032 49.279C74.8849 49.6614 74.8555 51.6994 74.4625 52.0862L74.2429 52.302L74.0558 52.0749C73.4256 51.3083 73.8536 48.6301 74.5032 49.279ZM89.9379 49.356C90.4392 50.1526 90.1432 52.4172 89.5669 52.1963C89.0525 51.9985 89.01 49.5243 89.5149 49.2033C89.7095 49.0794 89.7803 49.1051 89.9379 49.356ZM94.8269 49.5387C95.2005 50.2859 94.9709 52.0449 94.4796 52.2007C94.1104 52.3177 94.071 52.1669 94.071 50.6206V49.1076L94.3583 49.1407C94.5654 49.1645 94.6955 49.2747 94.8269 49.5387ZM31.0216 50.712L31.0942 51.3115H30.7738C30.5974 51.3115 30.4534 51.2802 30.4534 51.242C30.4534 51.1194 30.6699 49.809 30.735 49.5387C30.8064 49.2434 30.8827 49.5556 31.0216 50.712ZM86.5558 51.0768C86.5614 51.2708 86.5063 51.3115 86.241 51.3115C85.9463 51.3115 85.9244 51.2877 85.9776 51.0249C86.0095 50.8672 86.0933 50.4091 86.1634 50.008L86.2911 49.2778L86.42 50.06C86.4913 50.4905 86.552 50.9479 86.5558 51.0768ZM6.43586 50.2946C6.55538 51.2802 6.54787 51.3115 6.18556 51.3115C5.91836 51.3115 5.91774 51.309 5.99158 50.6594C6.16053 49.162 6.28693 49.0581 6.43586 50.2946ZM5.88082 53.8589C5.7857 54.1067 5.88144 54.464 6.0748 54.5854C6.45338 54.8226 6.862 54.2181 6.56539 53.8608C6.40457 53.6668 5.95528 53.6655 5.88082 53.8589ZM73.8199 53.9703C73.7216 54.1855 73.7341 54.2669 73.8906 54.4396C74.2147 54.7975 74.6728 54.6455 74.6728 54.1793C74.6728 53.6787 74.0251 53.5197 73.8199 53.9703ZM97.8468 53.8351C97.6735 54.0085 97.6897 54.3883 97.8768 54.5435C98.0852 54.7168 98.5264 54.5935 98.6065 54.3395C98.7535 53.8764 98.1835 53.4985 97.8468 53.8351ZM45.2574 54.6317C44.9677 54.8664 45.0697 55.0923 45.4258 55.0028C45.693 54.9358 45.8194 55.3845 45.5753 55.5353C45.402 55.6429 45.4583 55.7962 45.6723 55.7962C45.9226 55.7962 46.3056 55.3244 46.3056 55.0159C46.3056 54.5066 45.6911 54.2813 45.2574 54.6317ZM71.1272 54.9095C71.6573 55.4571 72.0045 55.4001 71.7361 54.81C71.6354 54.5892 71.544 54.5447 71.1942 54.5447H70.7731L71.1272 54.9095ZM8.81622 55.3006C9.02584 56.0071 10.4294 55.922 10.4294 55.203C10.4294 55.0153 10.0158 55.0303 9.80052 55.2249C9.62656 55.3826 9.28178 55.3388 9.28178 55.1592C9.28178 55.1079 9.16163 55.066 9.01395 55.066C8.78555 55.066 8.75677 55.1004 8.81622 55.3006ZM21.2111 55.1961C21.1685 55.2681 21.0665 55.432 20.9846 55.5616C20.8406 55.7862 20.8482 55.7962 21.1485 55.7962C21.4426 55.7962 22.1097 55.3457 22.1097 55.1473C22.1097 55.0115 21.2937 55.0566 21.2111 55.1961ZM30.9997 55.432L30.7644 55.7962H31.1098C31.3677 55.7962 31.5447 55.7036 31.8088 55.4308L32.163 55.066L31.6993 55.0672C31.2844 55.0685 31.2106 55.1073 30.9997 55.432ZM55.0792 55.4051L54.864 55.7437L55.1424 55.7787C55.3195 55.8012 55.4697 55.7468 55.5561 55.6285C55.6862 55.4508 55.6975 55.4508 55.8276 55.6285C55.914 55.7468 56.0642 55.8012 56.2413 55.7787L56.5197 55.7437L56.3045 55.4051C56.123 55.1198 56.0254 55.066 55.6918 55.066C55.3583 55.066 55.2607 55.1198 55.0792 55.4051ZM70.0528 55.4308C69.8557 55.8444 70.2581 56.0102 70.4959 55.6135C70.6004 55.4396 70.611 55.4396 70.7149 55.6135C70.8144 55.7793 71.3356 55.8807 71.3356 55.7337C71.3356 55.0528 70.3451 54.8188 70.0528 55.4308ZM86.0658 55.432L85.8305 55.7962H86.1096C86.2635 55.7962 86.4744 55.7193 86.5777 55.6254C86.7522 55.4677 86.771 55.4677 86.8317 55.6254C86.893 55.7843 87.5006 55.8826 87.5006 55.7337C87.5006 55.0666 86.4463 54.8451 86.0658 55.432ZM32.6361 55.4471C32.5203 55.4783 32.4852 55.581 32.5165 55.7937C32.5591 56.0841 32.5428 56.0972 32.1067 56.1285L31.6524 56.161L31.6004 57.9864C31.5479 59.8154 31.5034 60.072 31.2356 60.072C30.9678 60.072 30.9227 59.8154 30.8702 57.9864L30.8182 56.161H30.3489H29.8796L29.8508 57.8086C29.8089 60.2222 30.0886 60.9061 31.118 60.9061C32.2744 60.9061 32.5622 60.4093 32.6254 58.303C32.6711 56.7993 32.6723 56.7912 32.9702 56.5133C33.2712 56.2318 33.3194 56.0459 33.2036 55.6135C33.1435 55.3895 33.0027 55.3482 32.6361 55.4471ZM3.02427 56.2261C0.999336 57.0333 1.51808 60.9061 3.65127 60.9061H4.18378L4.15187 60.4656C4.12121 60.0476 4.10243 60.0244 3.77579 60.0082C2.45796 59.9443 2.48612 57.0477 3.80458 57.0477C4.1381 57.0477 4.40154 56.5002 4.21382 56.1967C4.13998 56.0778 3.34778 56.0972 3.02427 56.2261ZM4.74007 56.2418C4.71192 56.315 4.70128 57.3825 4.71692 58.6146L4.74508 60.8542L5.24068 60.8861L5.73627 60.918V59.9731V59.0289H6.15302H6.5704V59.9675V60.9061H7.09352H7.61728L7.58912 58.5339L7.56096 56.161H7.09165H6.62233L6.5923 57.0734L6.56226 57.9864H6.14927H5.73627V57.0477V56.1091H5.2632C4.97661 56.1091 4.77074 56.161 4.74007 56.2418ZM9.01959 56.2393C8.99393 56.3112 8.7818 57.308 8.5484 58.4557C8.31436 59.6027 8.09911 60.6233 8.0697 60.724C8.02464 60.8786 8.08784 60.9061 8.48645 60.9061C8.95638 60.9061 8.95701 60.9061 9.04462 60.4631C9.14661 59.9481 9.91691 59.7566 9.98887 60.2284C10.0896 60.898 10.0971 60.9061 10.5852 60.9061C11.0345 60.9061 11.0483 60.8974 10.9988 60.6195C10.9713 60.4618 10.8305 59.629 10.686 58.7685C10.542 57.9081 10.375 56.9576 10.3149 56.6566L10.206 56.1091H9.63658C9.27552 56.1091 9.04962 56.1567 9.01959 56.2393ZM11.7798 56.1348C11.7485 56.2887 11.4788 60.1308 11.4763 60.4631C11.4719 60.8974 11.4794 60.9061 11.8229 60.9061C12.2316 60.9061 12.3067 60.6308 12.3067 59.1252C12.3067 57.9444 12.4368 58.0427 12.7071 59.4281C12.9731 60.7897 12.9956 60.8323 13.4124 60.7841C13.704 60.7503 13.7146 60.7265 13.9755 59.4663C14.2671 58.0577 14.3917 57.9407 14.3929 59.0727C14.3935 59.4788 14.4236 60.0576 14.4599 60.3586L14.5256 60.9061H14.9286H15.3309L15.3221 60.4631C15.3171 60.219 15.2583 59.1515 15.192 58.0902L15.07 56.161H14.5487H14.0275L13.7665 57.6384C13.6232 58.4513 13.4774 59.144 13.443 59.1784C13.3898 59.2316 13.2221 58.44 12.8748 56.5002C12.8048 56.111 12.8023 56.1091 12.2948 56.1091C12.0144 56.1091 11.7829 56.1204 11.7798 56.1348ZM17.6775 56.2706C17.2814 56.4733 17.1268 56.6785 16.9917 57.1816C16.8027 57.8825 17.0229 58.2648 18.1305 59.1584C18.6799 59.602 18.2619 60.144 17.4628 60.0244L17.0111 59.9569L16.941 60.3323C16.8534 60.7979 16.8765 60.821 17.5066 60.8811C19.3489 61.0582 20.0028 59.2379 18.5047 58.1053C17.7413 57.5283 17.7544 57.1134 18.5379 57.0684L19.0854 57.0365V56.636C19.0854 56.3669 19.031 56.2149 18.9202 56.1723C18.6224 56.0578 17.996 56.1072 17.6775 56.2706ZM20.3995 56.4264C19.0673 57.5959 19.586 60.9074 21.101 60.9061C22.1028 60.9049 22.5446 60.2597 22.6115 58.7003C22.7048 56.5352 21.5853 55.3851 20.3995 56.4264ZM24.2998 56.2255C22.3162 57.0127 22.7116 60.7566 24.7929 60.8892L25.4474 60.9305V60.4593V59.9881L25.0795 59.9988C23.7898 60.0351 23.7141 57.1647 25.0019 57.0684C25.4136 57.0371 25.6965 56.5321 25.4893 56.1967C25.4161 56.0778 24.6239 56.0972 24.2998 56.2255ZM27.6713 56.2612C26.6238 56.7167 26.6864 58.069 27.7934 58.9043C28.7038 59.592 28.3365 60.3723 27.2896 59.9744C27.0706 59.8911 27.0231 59.9105 26.9711 60.1045C26.7965 60.7553 26.943 60.9017 27.7708 60.9049C29.5242 60.9111 29.879 58.9544 28.3008 57.9776C27.6519 57.5759 27.8121 56.9927 28.5518 57.0634C29.0061 57.1066 29.0924 57.0102 29.0962 56.4589C29.0987 56.086 28.3215 55.9783 27.6713 56.2612ZM34.5333 56.2849C33.1548 56.9739 33.0046 59.8092 34.3012 60.6708C34.6629 60.9111 35.6947 61.0119 35.8142 60.8185C36.0026 60.5138 35.7454 60.0094 35.4019 60.0094C34.6216 60.0094 34.2104 58.9932 34.5277 57.8493C34.6785 57.3068 34.962 57.0477 35.405 57.0477C35.7855 57.0477 35.9444 56.8031 35.8587 56.3519C35.8086 56.0872 35.0095 56.0465 34.5333 56.2849ZM37.515 56.1736C37.4744 56.2142 37.4406 57.2962 37.4406 58.5771V60.9061H37.9581H38.4756L38.5056 60.0714C38.545 58.9888 38.6802 58.9819 38.9943 60.0457L39.2484 60.9061H39.7527C40.3622 60.9061 40.3591 61.0131 39.7884 59.46L39.3197 58.1866L39.7227 57.3825C40.3641 56.0997 40.3641 56.1091 39.7571 56.1091H39.2434L38.8898 57.1572L38.5356 58.206L38.4837 57.1835L38.4318 56.161L38.0106 56.1298C37.7791 56.1129 37.5563 56.1329 37.515 56.1736ZM40.7783 58.5076V60.9061H41.2476H41.7169V59.9675V59.0289H42.1337H42.5511V59.9675V60.9061H43.0742H43.598L43.5698 58.5339L43.5416 56.161H43.0723H42.603L42.573 57.0734L42.5429 57.9864H42.1299H41.7169V57.0477V56.1091H41.2476H40.7783V58.5076ZM44.9102 56.4251C43.6267 57.5521 44.1348 60.9061 45.5885 60.9061C46.6691 60.9061 47.0878 60.2215 47.0878 58.4557C47.0878 56.4195 46.0346 55.4377 44.9102 56.4251ZM47.8387 56.1748C47.7986 56.2149 47.7655 57.2962 47.7655 58.5771V60.9061H48.8086H49.8517V60.4368V59.9675H49.3298H48.8086V59.3943V58.8205H49.2779H49.7472V58.4031V57.9864H49.2779H48.8086V57.5227V57.059L49.3042 57.0271L49.7991 56.9952V56.5784V56.161L48.8555 56.1316C48.3368 56.1147 47.8793 56.1348 47.8387 56.1748ZM52.61 56.2555C50.6908 57.0915 51.2209 60.9061 53.2564 60.9061H53.8146V60.4581C53.8146 60.0119 53.8127 60.0094 53.436 60.0094C52.732 60.0094 52.3366 59.1646 52.5074 58.0252C52.6 57.4088 52.9423 57.0477 53.4335 57.0477C53.7927 57.0477 54.0618 56.5284 53.8659 56.2111C53.7752 56.0647 52.9848 56.0922 52.61 56.2555ZM54.9222 56.4251C53.635 57.5552 54.1425 60.9061 55.6005 60.9061C56.6812 60.9061 57.0998 60.2215 57.0998 58.4557C57.0998 56.4195 56.0466 55.4377 54.9222 56.4251ZM57.8469 56.1786C57.8088 56.2167 57.7775 57.2962 57.7775 58.5771V60.9061H58.1949H58.6122L58.6129 59.42L58.6141 57.9338L58.967 58.925C59.7179 61.035 59.6416 60.9061 60.1466 60.9061H60.5934V58.5076V56.1091H60.1628H59.7323L59.7799 57.517C59.8381 59.2435 59.7955 59.2535 59.2336 57.6472C58.9883 56.9445 58.7418 56.3112 58.6867 56.2393C58.5816 56.1028 57.9671 56.0584 57.8469 56.1786ZM62.4137 56.2555C60.4507 57.1109 60.965 60.9105 63.0425 60.9049C64.0738 60.9024 64.035 60.9568 64.035 59.4863V58.1947H63.4092H62.7835V58.6121C62.7835 58.9131 62.8273 59.0289 62.9399 59.0289C63.0582 59.0289 63.0964 59.1565 63.0964 59.5507C63.0964 59.8373 63.0532 60.072 63.0006 60.072C62.51 60.072 62.2622 59.5745 62.2629 58.5908C62.2635 57.4213 62.6533 56.9432 63.505 57.0684C63.8473 57.1184 64.0994 56.3844 63.8047 56.1973C63.5976 56.0659 62.7685 56.101 62.4137 56.2555ZM65.9905 56.1748C65.8346 56.2205 65.8084 56.3632 65.8084 57.1597C65.8084 58.0208 65.7927 58.0902 65.5994 58.0902C65.4304 58.0902 65.391 58.1597 65.391 58.4557C65.391 58.751 65.4304 58.8205 65.5994 58.8205C65.794 58.8205 65.8084 58.8899 65.8084 59.8636V60.9061H66.5161C68.0642 60.9061 68.6762 60.2115 68.6762 58.4557C68.6762 56.6322 67.5842 55.7049 65.9905 56.1748ZM69.7819 56.4908C68.5335 57.7392 69.0454 60.9061 70.4959 60.9061C71.4727 60.9061 71.947 60.2541 72.039 58.7836C72.1754 56.5909 70.9389 55.3338 69.7819 56.4908ZM72.6916 58.5076V60.9061H73.1084H73.5257L73.5308 59.4725L73.5364 58.0383L73.9037 59.0289C74.1058 59.5739 74.3424 60.219 74.4293 60.4631C74.5839 60.8936 74.6014 60.9061 75.0476 60.9061H75.5075V58.5076V56.1091H75.077H74.6465L74.6928 57.569C74.7491 59.3311 74.7297 59.343 74.2134 57.8556C73.6165 56.1366 73.599 56.1091 73.1059 56.1091H72.6916V58.5076ZM77.3848 56.2255C76.5469 56.5578 76.0869 57.5189 76.152 58.8017C76.2346 60.4349 77.0706 61.1451 78.5781 60.8623L78.9491 60.7929V59.4938V58.1947H78.3234H77.6976V58.6121C77.6976 58.9131 77.7408 59.0289 77.8541 59.0289C77.9723 59.0289 78.0105 59.1565 78.0105 59.5507C78.0105 59.8373 77.9673 60.072 77.9148 60.072C77.4323 60.072 77.1376 59.5182 77.1376 58.6121C77.1376 57.5002 77.5312 56.9902 78.3296 57.0659C78.7226 57.1034 78.7314 57.0965 78.799 56.6979C78.8953 56.1273 78.2095 55.8982 77.3848 56.2255ZM80.389 56.1635C80.322 56.2305 80.4034 56.6729 80.9152 59.0289L81.312 60.8542L81.8845 60.8848L82.4577 60.9155L82.9808 58.5652C83.5622 55.9527 83.564 56.1091 82.9527 56.1091C82.3939 56.1091 82.4414 56.0027 82.2318 57.7267C81.9627 59.9418 81.8877 59.955 81.6586 57.8299C81.4765 56.1448 81.4609 56.1091 80.8983 56.1091C80.648 56.1091 80.419 56.1335 80.389 56.1635ZM83.8976 56.2418C83.8694 56.315 83.8588 57.3825 83.8744 58.6146L83.9026 60.8542L84.3982 60.8861L84.8938 60.918V58.5132V56.1091H84.4207C84.1341 56.1091 83.9282 56.161 83.8976 56.2418ZM85.7973 56.1786C85.7592 56.2167 85.7279 57.2962 85.7279 58.5771V60.9061H86.771H87.8135V60.4424V59.9787L87.266 59.9468L86.7185 59.9155V59.3943V58.8724L87.2141 58.8411L87.7096 58.8092V58.4031V57.9976L87.2141 57.9657L86.7185 57.9338V57.517V57.0997L87.2141 57.0678L87.7096 57.0358V56.5728V56.1091H86.7879C86.2817 56.1091 85.8355 56.1404 85.7973 56.1786ZM88.2309 56.6272V57.1516H88.5957H88.9612V59.0289V60.9061H89.4824H90.0036V59.0289V57.1516H90.4267H90.8497L90.8177 56.6566L90.7858 56.161L89.5087 56.1316L88.2309 56.1022V56.6272ZM92.4028 58.5076V60.9061H92.8195H93.2369L93.2419 59.4725L93.2475 58.0383L93.5955 58.9769C94.377 61.0845 94.2681 60.9061 94.7719 60.9061H95.2187V58.5076V56.1091H94.7881H94.3576L94.4039 57.5633C94.4296 58.3631 94.4121 58.9938 94.3651 58.965C94.3182 58.9363 94.28 58.868 94.28 58.8136C94.28 58.7592 94.0641 58.1284 93.8001 57.4119L93.3201 56.1091H92.8615H92.4028V58.5076ZM96.636 56.2912C96.5209 56.6654 95.7399 60.5088 95.7399 60.704C95.7399 60.8736 95.8137 60.9061 96.1973 60.9061H96.6548L96.7255 60.4368C96.8318 59.7266 97.5533 59.7072 97.6922 60.4111C97.778 60.8485 97.7855 60.8548 98.2548 60.8855L98.731 60.9161L98.3268 58.6428C98.104 57.3925 97.9019 56.3112 97.8775 56.2393C97.8018 56.0202 96.7054 56.0666 96.636 56.2912ZM99.388 56.3438C99.3868 56.4727 99.3173 57.4232 99.2341 58.4557C99.0195 61.1214 99.0007 60.9255 99.4681 60.8867L99.8592 60.8542L99.8836 60.2804C99.98 58.022 100.086 57.8155 100.367 59.3417C100.467 59.8868 100.571 60.4381 100.598 60.5676C100.636 60.7559 100.716 60.8022 101.004 60.8022C101.402 60.8022 101.419 60.7666 101.685 59.3943C101.914 58.2135 101.923 58.1966 102.007 58.7685C102.049 59.0551 102.088 59.6534 102.093 60.0983L102.102 60.9061H102.535H102.968L102.898 59.4725C102.86 58.6834 102.798 57.604 102.762 57.0734L102.696 56.1091H102.193C101.754 56.1091 101.682 56.1398 101.638 56.3438C101.41 57.4069 101.163 58.7942 101.16 59.0176C101.154 59.5376 100.986 59.0063 100.752 57.7254C100.433 55.9777 100.502 56.1091 99.9043 56.1091C99.4412 56.1091 99.3899 56.1323 99.388 56.3438ZM56.0629 57.5127C56.1956 58.221 56.0736 59.7353 55.8677 59.9381C55.2814 60.515 54.9009 58.0327 55.4447 57.176C55.6493 56.8531 55.9722 57.029 56.0629 57.5127ZM67.4485 57.2254C67.7119 57.6284 67.7106 59.3893 67.4459 59.7929C67.1049 60.3142 66.8509 60.1658 66.8509 59.4462C66.8509 58.8899 66.874 58.8205 67.0599 58.8205C67.2232 58.8205 67.2682 58.751 67.2682 58.4976C67.2682 58.2629 67.2113 58.1603 67.0599 58.1209C66.7482 58.0389 66.7457 56.9432 67.0574 56.9432C67.1706 56.9432 67.3465 57.0703 67.4485 57.2254ZM70.9251 57.4332C71.0841 57.9144 71.0109 59.6784 70.8231 59.9049C70.4026 60.4118 70.1392 59.893 70.1373 58.5552C70.1361 57.0821 70.5941 56.4295 70.9251 57.4332ZM21.5052 57.2824C21.8506 57.8925 21.5897 60.072 21.171 60.072C20.7662 60.072 20.5309 58.1096 20.8425 57.3343C20.9839 56.9814 21.32 56.9545 21.5052 57.2824ZM45.9952 57.3149C46.2624 58.0183 46.0647 59.9281 45.7124 60.0445C45.2837 60.1852 44.9915 57.9488 45.3519 57.2824C45.5246 56.9626 45.8676 56.9802 45.9952 57.3149ZM9.75297 58.3311L9.82806 59.1334H9.55523C9.24048 59.1334 9.24298 59.1515 9.40442 57.9964C9.54396 56.9964 9.63595 57.0847 9.75297 58.3311ZM97.4551 58.4356L97.5296 59.1334H97.2085C97.0315 59.1334 96.8869 59.1071 96.8869 59.0752C96.8869 58.9 97.1166 57.4933 97.1666 57.3606C97.2486 57.1428 97.3612 57.5627 97.4551 58.4356ZM55.3345 61.6958C55.0436 61.9868 55.2588 62.4705 55.6787 62.4705C55.9221 62.4705 56.1092 62.2671 56.1092 62.0012C56.1092 61.5619 55.6493 61.3811 55.3345 61.6958ZM86.3574 61.734C86.119 62.1795 86.3624 62.5437 86.8217 62.4279C87.037 62.3741 87.0839 62.2997 87.0839 62.0106C87.0839 61.5231 86.5739 61.3285 86.3574 61.734Z" fill="#373435"/>
<path fill-rule="evenodd" clip-rule="evenodd" d="M199.564 0.102857C198.535 0.346899 197.557 1.80552 197.557 3.09645V3.44249H198.69H199.824L199.883 3.00321C199.948 2.5145 200.167 2.29549 200.588 2.29549C201.366 2.29549 201.273 2.65279 199.708 5.67392C199.237 6.58439 199.223 6.57124 200.623 6.57124H201.8L201.919 6.17452C201.984 5.95613 202.278 5.38169 202.572 4.89799C203.426 3.49192 203.606 3.08143 203.606 2.54016C203.606 0.858764 201.565 -0.372088 199.564 0.102857ZM49.9255 6.07565L47.5433 8.18756L49.1402 8.21634L50.7371 8.24575L54.0893 6.24523C55.9327 5.14516 57.5096 4.18213 57.5935 4.10453C57.7218 3.98627 57.3157 3.96374 55.0267 3.96374H52.3078L49.9255 6.07565ZM12.8041 7.47545C5.3996 8.6625 1.24962 12.5284 1.23523 18.2521C1.22084 24.0166 4.79388 27.0978 13.6902 28.9944C19.3232 30.1946 21.5515 31.5581 20.6786 33.2689C20.0778 34.4466 18.5372 34.9397 15.4661 34.9378C12.0326 34.9359 10.7698 34.093 10.0996 31.3554L9.86621 30.4017L8.51897 30.1658C5.62049 29.6583 1.09506 28.8999 0.561299 28.833L0 28.7616L0.0581948 30.677C0.235282 36.4809 3.2927 40.4281 9.04961 42.2866C13.9242 43.8604 22.2361 43.2603 25.3423 41.1102C25.5012 41.0001 25.8429 40.7911 26.1013 40.6465C26.3591 40.5013 26.789 40.1903 27.0556 39.9551C27.3228 39.7198 27.585 39.5277 27.6388 39.5277C27.8171 39.5277 29.0799 37.9251 29.6112 37.024C32.066 32.8628 31.1142 26.8725 27.6063 24.4051C26.8247 23.8557 25.8266 23.2275 25.5932 23.1393C25.4424 23.0817 25.2484 22.9709 25.1621 22.8927C25.0757 22.8145 24.6533 22.6243 24.2234 22.4703C23.7936 22.317 23.3949 22.1549 23.3374 22.1118C23.2341 22.0329 20.9789 21.4672 18.2794 20.8421C17.5048 20.6625 16.4022 20.3847 15.8284 20.2245C15.2546 20.0643 14.6301 19.9029 14.4405 19.8653C12.8886 19.5587 11.2523 18.6839 11.1434 18.1013C10.8011 16.2785 13.1139 15.1215 16.2977 15.5226C18.5548 15.8067 19.489 16.5213 19.9971 18.351L20.2136 19.1288L22.1923 19.4229C25.754 19.9523 29.3771 20.4423 29.725 20.4423C29.8227 20.4423 29.8558 20.1144 29.8558 19.152C29.8558 16.7222 29.4209 15.0533 28.2289 12.9032C27.3234 11.2706 24.5482 9.31454 21.8775 8.4266C19.4627 7.62376 14.8766 7.14318 12.8041 7.47545ZM83.6335 7.8215C69.2093 9.64618 62.6884 25.6942 72.0001 36.4509C80.195 45.9178 96.3882 44.0406 101.965 32.9767C102.49 31.9354 102.49 31.9317 102.05 31.7358C101.836 31.6401 100.581 31.0494 99.2616 30.423C97.9425 29.7966 96.6516 29.189 96.3938 29.0726C96.1354 28.9556 95.4927 28.6596 94.9646 28.4143L94.0047 27.9688L93.6336 28.7159C91.3052 33.4122 85.3493 34.9897 80.919 32.0844C76.2834 29.0438 75.7259 22.8752 79.7463 19.1138C83.8143 15.3086 90.8428 16.3611 93.4065 21.1594L93.7387 21.7807L97.8562 19.7314C100.121 18.6044 101.992 17.6708 102.014 17.6577C102.322 17.4681 100.213 14.4613 98.7366 12.9846C94.9727 9.2213 88.9223 7.15257 83.6335 7.8215ZM146.871 25.1873V42.4474H151.825H156.779V35.6687V28.8899H163.141H169.502V35.6687V42.4474H174.508H179.514V25.2393V8.03112H174.508H169.502V13.7154V19.3991H163.141H156.779V13.6629V7.92725H151.825H146.871V25.1873ZM33.4495 13.5327C33.2124 29.6202 33.2818 31.8935 34.0803 34.2726C36.0345 40.094 41.2651 43.2872 48.8367 43.2809C57.9345 43.2734 63.5018 39.1366 64.8472 31.3841C65.177 29.4819 65.1889 28.1102 64.963 17.9912L64.7414 8.08368L59.6973 8.05615L54.6531 8.02924L54.6837 19.6851L54.7144 31.3403L54.486 32.0343C53.8083 34.0943 52.3979 34.8251 49.0852 34.832C45.8156 34.8395 44.2975 33.8615 43.7713 31.4098C43.6023 30.6226 43.5623 21.5987 43.6893 12.9239L43.7594 8.17004L40.284 8.10058C38.3729 8.06241 36.0714 8.03112 35.1697 8.03112H33.5309L33.4495 13.5327ZM66.1143 8.10058C66.0762 8.13938 66.0449 8.7232 66.0449 9.39901V10.628L66.5924 10.6593L67.1399 10.6906L67.1112 11.0485C67.0724 11.5234 66.9328 11.6705 66.4485 11.7481L66.0449 11.8125V12.6366C66.0449 13.6185 66.0624 13.6322 67.0417 13.4044C68.6011 13.0434 68.8914 12.5052 68.9465 9.88272L68.9853 8.03112H67.5848C66.8146 8.03112 66.1525 8.06241 66.1143 8.10058ZM110.473 25.2918V42.5519H115.584H120.694V40.5433V38.5352L121.241 37.8976C121.543 37.5472 122.202 36.7381 122.707 36.0992C123.211 35.4609 123.669 34.9384 123.723 34.9384C123.779 34.9384 125.594 36.6548 127.76 38.7517L131.697 42.5651L138.731 42.5031C142.6 42.4687 145.786 42.4205 145.81 42.3961C145.834 42.3717 142.498 38.9614 138.395 34.8176L130.936 27.2836L131.94 25.8187C132.491 25.0128 133.414 23.6887 133.989 22.8764C134.563 22.0642 135.274 21.0555 135.568 20.6344C135.861 20.2132 136.773 18.906 137.593 17.7303C138.414 16.5545 139.444 15.0765 139.883 14.4451C142.92 10.0805 143.901 8.67877 144.07 8.46039C144.177 8.32397 144.264 8.17129 144.264 8.12185C144.264 8.0718 141.376 8.03112 137.818 8.03112H131.372L129.336 10.8733C123.73 18.6989 121.938 21.1913 121.368 21.9541L120.746 22.7888L120.719 15.41L120.692 8.03112H115.583H110.473V25.2918ZM197.752 8.19194C181.796 10.678 176.924 30.5012 190.031 39.614C200.535 46.9178 215.677 41.2003 218.293 28.9418C220.819 17.102 210.095 6.26838 197.752 8.19194ZM221.987 25.2656L222.013 42.5L236.171 42.5263L250.329 42.5526V38.2768V34.001L241.125 33.9748L231.921 33.9478L231.893 31.8879L231.865 29.8285H239.48H247.095V25.4489V21.0693L239.508 21.0424L231.921 21.0155V18.7734V16.5313L241.125 16.5044L250.329 16.4781V12.2543V8.03112H236.145H221.961L221.987 25.2656ZM202.729 17.3154C210.24 19.2371 211.633 28.7479 204.972 32.6382C199.282 35.9615 191.892 31.9023 191.885 25.4483C191.878 19.9273 197.234 15.9106 202.729 17.3154Z" fill="#1F5898"/>
</svg>
